<?xml version="1.0" standalone="no"?>
<!DOCTYPE svg PUBLIC "-//W3C//DTD SVG 20010904//EN"
 "http://www.w3.org/TR/2001/REC-SVG-20010904/DTD/svg10.dtd">
<svg version="1.0" xmlns="http://www.w3.org/2000/svg"
 width="32.000000pt" height="32.000000pt" viewBox="0 0 32.000000 32.000000"
 preserveAspectRatio="xMidYMid meet">

<g transform="translate(0.000000,32.000000) scale(0.100000,-0.100000)"
fill="#000000" stroke="none">
<path d="M215 231 c-35 -16 -45 -16 -83 -4 -59 17 -87 4 -48 -23 l28 -17 -26
-14 c-22 -12 -29 -11 -50 2 -32 21 -42 5 -21 -35 21 -40 32 -44 84 -25 24 8
45 15 48 15 2 0 1 -21 -3 -46 -9 -65 12 -55 54 24 22 42 44 67 65 78 51 26 59
35 46 50 -15 18 -45 17 -94 -5z m80 -1 c3 -5 -13 -19 -35 -30 -33 -17 -47 -33
-66 -75 -31 -68 -45 -78 -33 -24 6 23 8 43 6 45 -2 3 -23 -3 -47 -11 -48 -17
-90 -20 -90 -6 0 5 -3 17 -6 26 -5 13 -3 14 17 5 20 -9 40 -4 124 34 106 48
120 52 130 36z m-156 -19 c21 -13 -5 -24 -29 -11 -11 6 -20 13 -20 15 0 8 34
5 49 -4z"/>
</g>
</svg>
