<svg width="140" height="16" viewBox="0 0 140 16" fill="none" xmlns="http://www.w3.org/2000/svg">
<path d="M6.624 15C6.24 15 5.958 14.802 5.778 14.406L0.504 2.346C0.336 1.938 0.318 1.602 0.45 1.338C0.582 1.074 0.834 0.942 1.206 0.942C1.626 0.942 1.914 1.128 2.07 1.5L6.696 12.606H6.498L11.214 1.5C11.31 1.284 11.418 1.14 11.538 1.068C11.67 0.983999 11.844 0.942 12.06 0.942C12.42 0.942 12.666 1.074 12.798 1.338C12.942 1.59 12.942 1.872 12.798 2.184L7.47 14.406C7.386 14.598 7.272 14.748 7.128 14.856C6.996 14.952 6.828 15 6.624 15ZM17.0092 15.072C16.1332 15.072 15.3472 14.856 14.6512 14.424C13.9552 13.98 13.4032 13.386 12.9952 12.642C12.5992 11.886 12.4012 11.034 12.4012 10.086C12.4012 9.138 12.6172 8.286 13.0492 7.53C13.4932 6.774 14.0872 6.18 14.8312 5.748C15.5872 5.304 16.4332 5.082 17.3692 5.082C18.3052 5.082 19.1452 5.304 19.8892 5.748C20.6332 6.18 21.2212 6.774 21.6532 7.53C22.0972 8.286 22.3192 9.138 22.3192 10.086H21.6172C21.6172 11.034 21.4132 11.886 21.0052 12.642C20.6092 13.386 20.0632 13.98 19.3672 14.424C18.6712 14.856 17.8852 15.072 17.0092 15.072ZM17.3692 13.452C17.9812 13.452 18.5272 13.308 19.0072 13.02C19.4872 12.72 19.8652 12.318 20.1412 11.814C20.4172 11.298 20.5552 10.722 20.5552 10.086C20.5552 9.438 20.4172 8.862 20.1412 8.358C19.8652 7.842 19.4872 7.44 19.0072 7.152C18.5272 6.852 17.9812 6.702 17.3692 6.702C16.7692 6.702 16.2232 6.852 15.7312 7.152C15.2512 7.44 14.8672 7.842 14.5792 8.358C14.3032 8.862 14.1652 9.438 14.1652 10.086C14.1652 10.722 14.3032 11.298 14.5792 11.814C14.8672 12.318 15.2512 12.72 15.7312 13.02C16.2232 13.308 16.7692 13.452 17.3692 13.452ZM21.4012 15.018C21.1372 15.018 20.9152 14.934 20.7352 14.766C20.5672 14.586 20.4832 14.364 20.4832 14.1V11.346L20.8252 9.438L22.3192 10.086V14.1C22.3192 14.364 22.2292 14.586 22.0492 14.766C21.8812 14.934 21.6652 15.018 21.4012 15.018ZM25.9696 11.418C25.7056 11.418 25.4836 11.334 25.3036 11.166C25.1356 10.986 25.0516 10.764 25.0516 10.5V1.86C25.0516 1.584 25.1356 1.362 25.3036 1.194C25.4836 1.026 25.7056 0.942 25.9696 0.942C26.2456 0.942 26.4676 1.026 26.6356 1.194C26.8036 1.362 26.8876 1.584 26.8876 1.86V10.5C26.8876 10.764 26.8036 10.986 26.6356 11.166C26.4676 11.334 26.2456 11.418 25.9696 11.418ZM33.3676 15.018C33.1036 15.018 32.8816 14.934 32.7016 14.766C32.5336 14.586 32.4496 14.364 32.4496 14.1V9.672C32.4496 8.988 32.3236 8.43 32.0716 7.998C31.8196 7.566 31.4776 7.248 31.0456 7.044C30.6256 6.828 30.1396 6.72 29.5876 6.72C29.0836 6.72 28.6276 6.822 28.2196 7.026C27.8116 7.23 27.4876 7.506 27.2476 7.854C27.0076 8.19 26.8876 8.58 26.8876 9.024H25.7536C25.7536 8.268 25.9336 7.596 26.2936 7.008C26.6656 6.408 27.1696 5.934 27.8056 5.586C28.4416 5.238 29.1556 5.064 29.9476 5.064C30.7756 5.064 31.5136 5.244 32.1616 5.604C32.8216 5.952 33.3376 6.468 33.7096 7.152C34.0936 7.836 34.2856 8.676 34.2856 9.672V14.1C34.2856 14.364 34.1956 14.586 34.0156 14.766C33.8476 14.934 33.6316 15.018 33.3676 15.018ZM25.9696 15.018C25.7056 15.018 25.4836 14.934 25.3036 14.766C25.1356 14.586 25.0516 14.364 25.0516 14.1V6.072C25.0516 5.796 25.1356 5.574 25.3036 5.406C25.4836 5.238 25.7056 5.154 25.9696 5.154C26.2456 5.154 26.4676 5.238 26.6356 5.406C26.8036 5.574 26.8876 5.796 26.8876 6.072V14.1C26.8876 14.364 26.8036 14.586 26.6356 14.766C26.4676 14.934 26.2456 15.018 25.9696 15.018ZM38.4368 15C38.1728 15 37.9508 14.916 37.7708 14.748C37.6028 14.568 37.5188 14.346 37.5188 14.082V6.072C37.5188 5.796 37.6028 5.574 37.7708 5.406C37.9508 5.238 38.1728 5.154 38.4368 5.154C38.7128 5.154 38.9348 5.238 39.1028 5.406C39.2708 5.574 39.3548 5.796 39.3548 6.072V14.082C39.3548 14.346 39.2708 14.568 39.1028 14.748C38.9348 14.916 38.7128 15 38.4368 15ZM38.4368 3.552C38.1128 3.552 37.8308 3.438 37.5908 3.21C37.3628 2.97 37.2488 2.688 37.2488 2.364C37.2488 2.04 37.3628 1.764 37.5908 1.536C37.8308 1.296 38.1128 1.176 38.4368 1.176C38.7608 1.176 39.0368 1.296 39.2648 1.536C39.5048 1.764 39.6248 2.04 39.6248 2.364C39.6248 2.688 39.5048 2.97 39.2648 3.21C39.0368 3.438 38.7608 3.552 38.4368 3.552ZM47.2344 15.072C46.2984 15.072 45.4524 14.856 44.6964 14.424C43.9524 13.98 43.3584 13.38 42.9144 12.624C42.4824 11.868 42.2664 11.016 42.2664 10.068C42.2664 9.12 42.4644 8.274 42.8604 7.53C43.2684 6.774 43.8204 6.18 44.5164 5.748C45.2124 5.304 45.9984 5.082 46.8744 5.082C47.5824 5.082 48.2364 5.232 48.8364 5.532C49.4364 5.82 49.9404 6.216 50.3484 6.72V1.86C50.3484 1.584 50.4324 1.362 50.6004 1.194C50.7804 1.026 51.0024 0.942 51.2664 0.942C51.5424 0.942 51.7644 1.026 51.9324 1.194C52.1004 1.362 52.1844 1.584 52.1844 1.86V10.068C52.1844 11.016 51.9624 11.868 51.5184 12.624C51.0864 13.38 50.4984 13.98 49.7544 14.424C49.0104 14.856 48.1704 15.072 47.2344 15.072ZM47.2344 13.452C47.8464 13.452 48.3924 13.308 48.8724 13.02C49.3524 12.72 49.7304 12.312 50.0064 11.796C50.2824 11.28 50.4204 10.704 50.4204 10.068C50.4204 9.42 50.2824 8.844 50.0064 8.34C49.7304 7.836 49.3524 7.44 48.8724 7.152C48.3924 6.852 47.8464 6.702 47.2344 6.702C46.6344 6.702 46.0884 6.852 45.5964 7.152C45.1164 7.44 44.7324 7.836 44.4444 8.34C44.1684 8.844 44.0304 9.42 44.0304 10.068C44.0304 10.704 44.1684 11.28 44.4444 11.796C44.7324 12.312 45.1164 12.72 45.5964 13.02C46.0884 13.308 46.6344 13.452 47.2344 13.452ZM61.7981 15C61.5341 15 61.3121 14.91 61.1321 14.73C60.9641 14.55 60.8801 14.328 60.8801 14.064V1.878C60.8801 1.602 60.9641 1.38 61.1321 1.212C61.3121 1.032 61.5341 0.942 61.7981 0.942C62.0861 0.942 62.3261 1.056 62.5181 1.284L70.3661 11.724V1.878C70.3661 1.602 70.4561 1.38 70.6361 1.212C70.8161 1.032 71.0381 0.942 71.3021 0.942C71.5781 0.942 71.8001 1.032 71.9681 1.212C72.1361 1.38 72.2201 1.602 72.2201 1.878V14.064C72.2201 14.328 72.1361 14.55 71.9681 14.73C71.8001 14.91 71.5781 15 71.3021 15C71.1821 15 71.0501 14.976 70.9061 14.928C70.7741 14.868 70.6661 14.784 70.5821 14.676L62.7341 4.236V14.064C62.7341 14.328 62.6441 14.55 62.4641 14.73C62.2961 14.91 62.0741 15 61.7981 15ZM79.7455 15.072C78.8695 15.072 78.0835 14.856 77.3875 14.424C76.6915 13.98 76.1395 13.386 75.7315 12.642C75.3355 11.886 75.1375 11.034 75.1375 10.086C75.1375 9.138 75.3535 8.286 75.7855 7.53C76.2295 6.774 76.8235 6.18 77.5675 5.748C78.3235 5.304 79.1695 5.082 80.1055 5.082C81.0415 5.082 81.8815 5.304 82.6255 5.748C83.3695 6.18 83.9575 6.774 84.3895 7.53C84.8335 8.286 85.0555 9.138 85.0555 10.086H84.3535C84.3535 11.034 84.1495 11.886 83.7415 12.642C83.3455 13.386 82.7995 13.98 82.1035 14.424C81.4075 14.856 80.6215 15.072 79.7455 15.072ZM80.1055 13.452C80.7175 13.452 81.2635 13.308 81.7435 13.02C82.2235 12.72 82.6015 12.318 82.8775 11.814C83.1535 11.298 83.2915 10.722 83.2915 10.086C83.2915 9.438 83.1535 8.862 82.8775 8.358C82.6015 7.842 82.2235 7.44 81.7435 7.152C81.2635 6.852 80.7175 6.702 80.1055 6.702C79.5055 6.702 78.9595 6.852 78.4675 7.152C77.9875 7.44 77.6035 7.842 77.3155 8.358C77.0395 8.862 76.9015 9.438 76.9015 10.086C76.9015 10.722 77.0395 11.298 77.3155 11.814C77.6035 12.318 77.9875 12.72 78.4675 13.02C78.9595 13.308 79.5055 13.452 80.1055 13.452ZM84.1375 15.018C83.8735 15.018 83.6515 14.934 83.4715 14.766C83.3035 14.586 83.2195 14.364 83.2195 14.1V11.346L83.5615 9.438L85.0555 10.086V14.1C85.0555 14.364 84.9655 14.586 84.7855 14.766C84.6175 14.934 84.4015 15.018 84.1375 15.018ZM90.573 14.982C90.201 14.982 89.913 14.784 89.709 14.388L85.893 6.342C85.797 6.138 85.785 5.94 85.857 5.748C85.941 5.544 86.097 5.388 86.325 5.28C86.529 5.172 86.733 5.154 86.937 5.226C87.153 5.298 87.315 5.436 87.423 5.64L90.987 13.326H90.123L93.651 5.64C93.759 5.436 93.921 5.298 94.137 5.226C94.365 5.154 94.593 5.172 94.821 5.28C95.037 5.376 95.181 5.526 95.253 5.73C95.325 5.934 95.313 6.138 95.217 6.342L91.401 14.388C91.221 14.784 90.945 14.982 90.573 14.982ZM100.857 15.072C99.9808 15.072 99.1948 14.856 98.4988 14.424C97.8028 13.98 97.2508 13.386 96.8428 12.642C96.4468 11.886 96.2488 11.034 96.2488 10.086C96.2488 9.138 96.4648 8.286 96.8968 7.53C97.3408 6.774 97.9348 6.18 98.6788 5.748C99.4348 5.304 100.281 5.082 101.217 5.082C102.153 5.082 102.993 5.304 103.737 5.748C104.481 6.18 105.069 6.774 105.501 7.53C105.945 8.286 106.167 9.138 106.167 10.086H105.465C105.465 11.034 105.261 11.886 104.853 12.642C104.457 13.386 103.911 13.98 103.215 14.424C102.519 14.856 101.733 15.072 100.857 15.072ZM101.217 13.452C101.829 13.452 102.375 13.308 102.855 13.02C103.335 12.72 103.713 12.318 103.989 11.814C104.265 11.298 104.403 10.722 104.403 10.086C104.403 9.438 104.265 8.862 103.989 8.358C103.713 7.842 103.335 7.44 102.855 7.152C102.375 6.852 101.829 6.702 101.217 6.702C100.617 6.702 100.071 6.852 99.5788 7.152C99.0988 7.44 98.7148 7.842 98.4268 8.358C98.1508 8.862 98.0128 9.438 98.0128 10.086C98.0128 10.722 98.1508 11.298 98.4268 11.814C98.7148 12.318 99.0988 12.72 99.5788 13.02C100.071 13.308 100.617 13.452 101.217 13.452ZM105.249 15.018C104.985 15.018 104.763 14.934 104.583 14.766C104.415 14.586 104.331 14.364 104.331 14.1V11.346L104.673 9.438L106.167 10.086V14.1C106.167 14.364 106.077 14.586 105.897 14.766C105.729 14.934 105.513 15.018 105.249 15.018ZM109.835 14.658L108.611 13.578L114.731 5.496L115.937 6.576L109.835 14.658ZM109.295 15C108.731 15 108.449 14.718 108.449 14.154C108.449 13.59 108.731 13.308 109.295 13.308H115.433C115.997 13.308 116.279 13.59 116.279 14.154C116.279 14.718 115.997 15 115.433 15H109.295ZM109.115 6.846C108.551 6.846 108.269 6.564 108.269 6C108.269 5.436 108.551 5.154 109.115 5.154H115.253C115.817 5.154 116.099 5.436 116.099 6C116.099 6.564 115.817 6.846 115.253 6.846H109.115ZM122.372 15.072C121.496 15.072 120.71 14.856 120.014 14.424C119.318 13.98 118.766 13.386 118.358 12.642C117.962 11.886 117.764 11.034 117.764 10.086C117.764 9.138 117.98 8.286 118.412 7.53C118.856 6.774 119.45 6.18 120.194 5.748C120.95 5.304 121.796 5.082 122.732 5.082C123.668 5.082 124.508 5.304 125.252 5.748C125.996 6.18 126.584 6.774 127.016 7.53C127.46 8.286 127.682 9.138 127.682 10.086H126.98C126.98 11.034 126.776 11.886 126.368 12.642C125.972 13.386 125.426 13.98 124.73 14.424C124.034 14.856 123.248 15.072 122.372 15.072ZM122.732 13.452C123.344 13.452 123.89 13.308 124.37 13.02C124.85 12.72 125.228 12.318 125.504 11.814C125.78 11.298 125.918 10.722 125.918 10.086C125.918 9.438 125.78 8.862 125.504 8.358C125.228 7.842 124.85 7.44 124.37 7.152C123.89 6.852 123.344 6.702 122.732 6.702C122.132 6.702 121.586 6.852 121.094 7.152C120.614 7.44 120.23 7.842 119.942 8.358C119.666 8.862 119.528 9.438 119.528 10.086C119.528 10.722 119.666 11.298 119.942 11.814C120.23 12.318 120.614 12.72 121.094 13.02C121.586 13.308 122.132 13.452 122.732 13.452ZM126.764 15.018C126.5 15.018 126.278 14.934 126.098 14.766C125.93 14.586 125.846 14.364 125.846 14.1V11.346L126.188 9.438L127.682 10.086V14.1C127.682 14.364 127.592 14.586 127.412 14.766C127.244 14.934 127.028 15.018 126.764 15.018ZM138.731 15.018C138.467 15.018 138.245 14.934 138.065 14.766C137.897 14.586 137.813 14.364 137.813 14.1V9.672C137.813 8.988 137.687 8.43 137.435 7.998C137.183 7.566 136.841 7.248 136.409 7.044C135.989 6.828 135.503 6.72 134.951 6.72C134.447 6.72 133.991 6.822 133.583 7.026C133.175 7.23 132.851 7.506 132.611 7.854C132.371 8.19 132.251 8.58 132.251 9.024H131.117C131.117 8.268 131.297 7.596 131.657 7.008C132.029 6.408 132.533 5.934 133.169 5.586C133.805 5.238 134.519 5.064 135.311 5.064C136.139 5.064 136.877 5.244 137.525 5.604C138.185 5.952 138.701 6.468 139.073 7.152C139.457 7.836 139.649 8.676 139.649 9.672V14.1C139.649 14.364 139.559 14.586 139.379 14.766C139.211 14.934 138.995 15.018 138.731 15.018ZM131.333 15.018C131.069 15.018 130.847 14.934 130.667 14.766C130.499 14.586 130.415 14.364 130.415 14.1V6.072C130.415 5.796 130.499 5.574 130.667 5.406C130.847 5.238 131.069 5.154 131.333 5.154C131.609 5.154 131.831 5.238 131.999 5.406C132.167 5.574 132.251 5.796 132.251 6.072V14.1C132.251 14.364 132.167 14.586 131.999 14.766C131.831 14.934 131.609 15.018 131.333 15.018Z" fill="#25282B"/>
</svg>
